<svg width="24" height="24" viewBox="0 0 24 24" fill="none" xmlns="http://www.w3.org/2000/svg">
<path fill-rule="evenodd" clip-rule="evenodd" d="M19.112 14.2106V14.2106C13.9552 14.2106 9.7759 10.0324 9.7759 4.88256C9.7759 2.18623 7.60079 0 4.88799 0C2.19958 0 0 2.18623 0 4.88256C0 7.57897 2.17511 9.76521 4.88799 9.76521H4.91238C10.0447 9.76521 14.1996 13.9433 14.224 19.0931V19.1174C14.224 21.8138 16.3991 24 19.112 24C21.8249 24 24 21.8138 24 19.1174C23.9755 16.3968 21.8004 14.2106 19.112 14.2106" fill="#31C1BF"/>
<path fill-rule="evenodd" clip-rule="evenodd" d="M4.91241 14.2109C2.224 14.2109 0.0244141 16.3972 0.0244141 19.0935C0.0244141 21.7899 2.19953 23.9761 4.91241 23.9761C7.6252 23.9761 9.8004 21.7899 9.8004 19.0935C9.77593 16.3972 7.60082 14.2109 4.91241 14.2109" fill="#31C1BF"/>
<path fill-rule="evenodd" clip-rule="evenodd" d="M19.1121 0C21.8117 0 24.0001 2.18597 24.0001 4.88256C24.0001 7.57915 21.8117 9.76521 19.1121 9.76521C16.4125 9.76521 14.2241 7.57915 14.2241 4.88256C14.2241 2.18597 16.4125 0 19.1121 0" fill="#31C1BF"/>
</svg>
